<svg xmlns="http://www.w3.org/2000/svg" version="1.1" xmlns:xlink="http://www.w3.org/1999/xlink" xmlns:svgjs="http://svgjs.dev/svgjs" width="1500" height="1500" viewBox="0 0 1500 1500"><rect width="1500" height="1500" fill="#000000"></rect><g transform="matrix(0.6666666666666666,0,0,0.6666666666666666,249.39393939393938,671.8760535463745)"><svg viewBox="0 0 396 61" data-background-color="#ffffff" preserveAspectRatio="xMidYMid meet" height="231" width="1500" xmlns="http://www.w3.org/2000/svg" xmlns:xlink="http://www.w3.org/1999/xlink"><g id="tight-bounds" transform="matrix(1,0,0,1,0.2400000000000091,0.4451995692932371)"><svg viewBox="0 0 395.52 60.109600861413504" height="60.109600861413504" width="395.52"><g><svg viewBox="0 0 513.1568852555953 77.9876" height="60.109600861413504" width="395.52"><g><svg viewBox="0 0 513.1568852555953 77.9876" height="77.9876" width="513.1568852555953"><g id="textblocktransform"><svg viewBox="0 0 513.1568852555953 77.9876" height="77.9876" width="513.1568852555953" id="textblock"><g><svg viewBox="0 0 513.1568852555953 77.9876" height="77.9876" width="513.1568852555953"><g><svg><g></g><g></g></svg></g><g><svg><g></g><g><svg></svg></g></svg></g><g id="text-0"><svg viewBox="0 0 513.1568852555953 77.9876" height="77.9876" width="513.1568852555953"><g transform="matrix(1,0,0,1,0,16.143799999999995)"><svg width="168.40000000000003" viewBox="4.1 -35.1 168.38 45.7" height="45.70000000000001" data-palette-color="#414c84"><path d="M12.8 0L5.65 0Q4.1 0 4.1-1.5L4.1-1.5 4.1-33.5Q4.1-35 5.5-35L5.5-35 12.25-35Q21.85-35 21.85-25.5L21.85-25.5Q21.85-23.05 20.73-21.18 19.6-19.3 17.55-18.45L17.55-18.45 17.55-18.25Q20.2-17.3 21.7-15.08 23.2-12.85 23.2-9.9L23.2-9.9Q23.2 0 12.8 0L12.8 0ZM8.6-31.2L8.6-19.8 12.25-19.8Q14.65-19.8 16.03-21.33 17.4-22.85 17.4-25.5L17.4-25.5Q17.4-31.2 12.25-31.2L12.25-31.2 8.6-31.2ZM8.6-16L8.6-3.8 12.8-3.8Q18.65-3.8 18.65-9.9L18.65-9.9Q18.65-12.75 17.03-14.38 15.4-16 12.25-16L12.25-16 8.6-16ZM33.95-11.5L25.95-11.5Q24.95-11.5 24.95-13L24.95-13 24.95-13.5Q24.95-15 25.95-15L25.95-15 33.95-15Q34.95-15 34.95-13.5L34.95-13.5 34.95-13Q34.95-11.5 33.95-11.5L33.95-11.5ZM42.75 0.1L42.35 0.1Q41.25 0.1 40.77-0.2 40.3-0.5 40.3-1L40.3-1 40.3-33.5Q40.3-35 41.85-35L41.85-35 54.9-35Q55.85-35 55.85-33.5L55.85-33.5 55.85-32.7Q55.85-31.2 54.9-31.2L54.9-31.2 44.8-31.2 44.8-18.8 54.1-18.8Q55.1-18.8 55.1-17.3L55.1-17.3 55.1-16.5Q55.1-15 54.1-15L54.1-15 44.8-15 44.8-1Q44.8-0.5 44.35-0.2 43.9 0.1 42.75 0.1L42.75 0.1ZM62.29 0.1L61.89 0.1Q60.79 0.1 60.37-0.2 59.94-0.5 59.94-1L59.94-1 59.94-25.15Q59.94-25.7 60.37-25.98 60.79-26.25 61.89-26.25L61.89-26.25 62.29-26.25Q63.39-26.25 63.82-25.98 64.24-25.7 64.24-25.15L64.24-25.15 64.24-1Q64.24-0.5 63.82-0.2 63.39 0.1 62.29 0.1L62.29 0.1ZM62.09-29.75L62.09-29.75Q60.89-29.75 60.39-30.05 59.89-30.35 59.89-30.85L59.89-30.85 59.89-33.85Q59.89-34.35 60.39-34.65 60.89-34.95 62.09-34.95L62.09-34.95Q63.29-34.95 63.79-34.68 64.29-34.4 64.29-33.85L64.29-33.85 64.29-30.85Q64.29-30.35 63.79-30.05 63.29-29.75 62.09-29.75ZM77.44 0.3L77.44 0.3Q76.39 0.3 75.09-0.15 73.79-0.6 72.87-1.93 71.94-3.25 71.94-5.8L71.94-5.8 71.94-22.55 69.94-22.55Q68.94-22.55 68.94-24.05L68.94-24.05 68.94-24.65Q68.94-26.15 69.94-26.15L69.94-26.15 71.94-26.15 72.54-31.4Q72.69-32.5 74.09-32.5L74.09-32.5 74.49-32.5Q75.49-32.5 75.87-32.23 76.24-31.95 76.24-31.4L76.24-31.4 76.24-26.15 79.59-26.15Q80.59-26.15 80.59-24.65L80.59-24.65 80.59-24.05Q80.59-22.55 79.59-22.55L79.59-22.55 76.24-22.55 76.24-6.3Q76.24-4.55 76.62-3.93 76.99-3.3 78.09-3.3L78.09-3.3Q78.99-3.3 79.42-3.43 79.84-3.55 80.09-3.55L80.09-3.55Q80.44-3.55 80.62-3.05 80.79-2.55 80.84-1.98 80.89-1.4 80.89-1.15L80.89-1.15Q80.89-0.65 80.29-0.33 79.69 0 78.89 0.15 78.09 0.3 77.44 0.3ZM100.59 0.1L99.89 0.1Q97.99 0.1 97.99-1L97.99-1 97.99-15.85 89.74-33.3Q89.64-33.55 89.54-33.83 89.44-34.1 89.44-34.3L89.44-34.3Q89.44-34.7 89.91-34.9 90.39-35.1 91.49-35.1L91.49-35.1 92.14-35.1Q92.89-35.1 93.39-34.98 93.89-34.85 94.09-34.35L94.09-34.35 100.39-20.3 106.59-34.4Q106.79-34.85 107.34-34.98 107.89-35.1 108.59-35.1L108.59-35.1 109.19-35.1Q110.19-35.1 110.61-34.9 111.04-34.7 111.04-34.3L111.04-34.3Q111.04-33.9 110.79-33.3L110.79-33.3 102.49-15.7 102.49-1Q102.49 0.1 100.59 0.1L100.59 0.1ZM120.18 0.3L120.18 0.3Q115.48 0.3 113.01-3.1 110.53-6.5 110.53-12.95L110.53-12.95Q110.53-19.45 113.01-22.95 115.48-26.45 120.18-26.45L120.18-26.45Q124.83-26.45 127.26-22.98 129.68-19.5 129.68-12.95L129.68-12.95Q129.68-6.45 127.28-3.08 124.88 0.3 120.18 0.3ZM120.08-3.3L120.08-3.3Q122.73-3.3 124.01-5.68 125.28-8.05 125.28-13.05L125.28-13.05Q125.28-18.05 124.01-20.45 122.73-22.85 120.08-22.85L120.08-22.85Q117.38-22.85 116.16-20.48 114.93-18.1 114.93-13.05L114.93-13.05Q114.93-8.05 116.16-5.68 117.38-3.3 120.08-3.3ZM141.88 10.6L141.88 10.6Q132.98 10.6 132.98 4.15L132.98 4.15Q132.98 2 134.06 0.35 135.13-1.3 136.98-2.25L136.98-2.25 136.98-2.35Q135.38-3.65 135.38-6L135.38-6Q135.38-7.6 136.01-8.7 136.63-9.8 137.73-10.6L137.73-10.6Q135.68-11.6 134.83-13.55 133.98-15.5 133.98-17.85L133.98-17.85Q133.98-21.65 136.08-24.05 138.18-26.45 142.28-26.45L142.28-26.45Q143.53-26.45 144.63-26.15L144.63-26.15 152.13-26.15Q153.13-26.15 153.13-24.7L153.13-24.7 153.13-24.1Q153.13-22.7 152.13-22.7L152.13-22.7Q151.18-22.7 150.48-22.73 149.78-22.75 149.23-22.8L149.23-22.8 149.13-22.7Q150.48-20.55 150.48-17.9L150.48-17.9Q150.48-14.4 148.48-12 146.48-9.6 142.68-9.45L142.68-9.45Q141.13-9.4 140.11-8.7 139.08-8 139.08-6.4L139.08-6.4Q139.08-5.15 139.93-4.58 140.78-4 142.13-3.8 143.48-3.6 144.93-3.35L144.93-3.35Q147.88-2.95 149.83-1.43 151.78 0.1 151.78 3.2L151.78 3.2Q151.78 6.75 149.28 8.68 146.78 10.6 141.88 10.6ZM142.23-12.95L142.23-12.95Q143.43-12.95 144.43-13.35 145.43-13.75 146.03-14.8 146.63-15.85 146.63-17.8L146.63-17.8Q146.63-20 146.03-21.13 145.43-22.25 144.43-22.68 143.43-23.1 142.23-23.1L142.23-23.1Q141.03-23.1 140.06-22.68 139.08-22.25 138.48-21.13 137.88-20 137.88-17.8L137.88-17.8Q137.88-14.85 139.16-13.9 140.43-12.95 142.23-12.95ZM142.23 7.25L142.23 7.25Q147.88 7.25 147.88 3.65L147.88 3.65Q147.88 2.05 147.01 1.3 146.13 0.55 144.76 0.25 143.38-0.05 141.91-0.2 140.43-0.35 139.23-0.75L139.23-0.75Q138.28-0.2 137.58 0.88 136.88 1.95 136.88 3.5L136.88 3.5Q136.88 7.25 142.23 7.25ZM161.38 0.3L161.38 0.3Q158.18 0.3 156.25-1.68 154.33-3.65 154.33-7.45L154.33-7.45Q154.33-10.45 155.55-12.28 156.78-14.1 158.75-15.03 160.73-15.95 163.08-16.25 165.43-16.55 167.68-16.55L167.68-16.55 167.68-18.95Q167.68-20.5 166.75-21.68 165.83-22.85 163.43-22.85L163.43-22.85Q161.58-22.85 160.05-22.45 158.53-22.05 157.58-21.63 156.63-21.2 156.33-21.2L156.33-21.2Q155.83-21.2 155.53-22.15 155.23-23.1 155.23-23.7L155.23-23.7Q155.23-24.15 156.48-24.8 157.73-25.45 159.63-25.95 161.53-26.45 163.48-26.45L163.48-26.45Q167.48-26.45 169.73-24.45 171.98-22.45 171.98-18.9L171.98-18.9 171.98-7.4Q171.98-4.35 172.23-2.93 172.48-1.5 172.48-1.15L172.48-1.15Q172.48-0.55 171.43-0.25 170.38 0.05 169.58 0.05L169.58 0.05Q168.93 0.05 168.65-0.68 168.38-1.4 168.03-3.15L168.03-3.15Q166.78-1.55 165.15-0.63 163.53 0.3 161.38 0.3ZM162.18-3.25L162.18-3.25Q163.93-3.25 165.3-4.1 166.68-4.95 167.68-6.5L167.68-6.5 167.68-13Q162.78-13 160.75-11.88 158.73-10.75 158.73-7.5L158.73-7.5Q158.73-3.25 162.18-3.25Z" opacity="1" transform="matrix(1,0,0,1,0,0)" fill="#414c84" class="undefined-tk-0"></path></svg></g><g><svg xmlns="http://www.w3.org/2000/svg" xmlns:xlink="http://www.w3.org/1999/xlink" version="1.1" x="186.81240000000003" y="0" viewBox="5.002541901581317 31.999638320983777 89.99781506640261 36.38862361412062" style="enable-background:new 0 0 100 100;" xml:space="preserve" height="77.9876" width="192.88208525559526" class="icon-dxe-0" data-fill-palette-color="accent" id="dxe-0"><g fill="#5866af" data-fill-palette-color="accent"><path d="M94.378 67.231C93.788 67.231 92.056 66.974 91.647 66.584 90.02 64.985 92.656 61.132 92.941 58.049 93.35 53.615 91.809 47.544 83.749 46.659A300 300 0 0 1 73.569 45.362C72.748 45.227 72.118 45.132 71.801 45.084 70.8 44.937 69.973 44.276 67.976 42.681L67.785 42.534C53.787 27.842 25.502 31.844 16.785 34.963 16.112 35.201 15.597 35.415 15.213 35.617 9.622 38.494 7.498 44.934 7.88 47.731 8.293 50.756 12.465 54.594 16.145 57.072 15.307 57.363 14.874 58.389 14.421 59.47 14.105 60.222 13.748 61.073 13.217 61.799 13.123 61.917 13.029 62.036 12.935 62.147 11.287 64.002 8.86 65.382 8.171 65.348 7.296 65.29 5.511 66.142 5.07 67.082 4.888 67.47 5.066 68.39 5.705 68.359 6.078 68.341 14.471 68.131 21.265 67.849L21.348 67.848 21.369 67.849C22.021 67.849 22.714 67.824 23.458 67.774L23.485 67.773 23.488 67.772 23.694 67.763H23.695C35.084 67.451 49.533 68.093 54.972 68.334 54.972 68.334 55.762 68.367 55.855 68.367 57.009 68.367 58.921 68.039 60.155 67.069 61.476 66.021 61.62 65.277 62.115 64.119 62.115 64.119 63.269 61.83 63.37 60.47 63.372 60.447 63.363 60.427 63.362 60.405 65.105 59.878 67.361 58.835 68.398 57.798 68.932 57.264 69.583 56.448 69.974 55.464 70.238 55.595 70.726 55.842 70.774 56.026 70.787 56.079 70.73 56.17 70.706 56.205 69.996 57.232 68.967 59.223 70.051 61.021 70.544 61.845 71.146 62.337 71.629 62.732 72.11 63.126 72.362 63.345 72.363 63.618 72.353 63.675 72.265 63.83 72.208 63.932 72.007 64.286 71.705 64.821 71.982 65.303 72.291 66.03 73.317 66.218 74.115 66.248 74.227 66.255 74.392 66.247 74.584 66.236 74.881 66.218 75.381 66.191 75.577 66.269 75.936 66.418 76.323 66.704 76.734 67.007 77.398 67.499 78.087 68.006 78.882 68.118 79.556 68.212 80.702 68.372 82.197 68.372 83.007 68.372 90.131 68.444 94.104 68.285 95.434 68.23 95.072 67.25 94.378 67.231M15.296 59.839C15.713 58.845 16.074 57.986 16.585 57.942 16.927 57.899 17.52 58.163 18.369 58.693 18.74 58.92 19.127 59.174 19.515 59.43 20.647 60.176 21.715 60.881 22.568 61.029 22.773 61.065 23.156 61.002 24.964 60.666L25.784 60.481C28.213 59.924 31.882 59.071 35.679 59.136L37.899 59.213C37.548 59.356 37.2 59.502 36.851 59.653L35.668 59.612C31.945 59.547 28.442 60.361 25.89 60.945 25.571 61.018 25.277 61.085 24.995 61.147A23 23 0 0 0 25.005 64.39C24.889 64.419 24.776 64.448 24.664 64.474 24.379 63.789 23.528 63.466 22.876 63.222 22.629 63.13 22.266 62.995 22.144 62.9 22.115 62.059 22.006 61.422 21.601 61.042 21.383 60.839 21.114 60.759 20.779 60.751 20.504 60.761 20.254 60.902 20.075 61.151 19.716 61.647 19.658 62.572 19.885 63.558 19.778 63.66 19.684 63.768 19.6 63.883 19.495 62.597 18.944 61.267 18.396 60.696 17.975 60.258 17.462 60.263 17.165 60.601A1.1 1.1 0 0 0 16.938 61.085C16.649 60.656 16.309 60.351 15.945 60.351A0.74 0.74 0 0 0 15.315 60.708C15.15 60.97 15.112 61.38 15.141 61.812 15.069 61.75 14.658 61.513 14.534 61.477 14.834 60.925 15.078 60.36 15.296 59.839M20.863 63.596C20.571 62.427 20.656 61.875 20.736 61.789 20.795 61.732 20.943 61.717 21.002 61.802 21.112 61.961 21.176 62.294 21.196 63.006 21.222 63.62 21.864 63.86 22.544 64.114 22.95 64.265 23.426 64.444 23.663 64.669L23.616 64.677 23.509 64.695C22.961 64.77 21.602 64.631 20.403 64.386 20.476 64.295 20.565 64.2 20.683 64.116 20.687 64.113 20.591 64.205 20.692 64.106S20.92 63.827 20.863 63.596M18.656 64.006L18.023 63.864A12 12 0 0 0 17.947 63.337C17.702 62.104 17.622 61.526 17.825 61.488S18.583 62.961 18.656 64.006M16.838 63.383A5 5 0 0 1 16.378 63.013C16.187 62.592 15.83 61.546 16.074 61.498S16.701 62.609 16.838 63.383M6.09 67.486C5.978 67.395 6.097 67.21 6.199 67.112 6.705 66.626 7.696 66.283 8.088 66.296 9.168 66.386 11.486 64.981 13.203 63.237 13.652 64.641 16.136 66.258 17.685 67.034 12.409 67.228 6.218 67.59 6.09 67.486M79.011 67.179C78.922 67.166 78.831 67.131 78.741 67.102 78.793 67.036 78.814 66.955 78.845 66.87 78.958 66.565 79.272 66.056 79.601 65.996A0.48 0.48 0 0 0 79.983 65.441 0.48 0.48 0 0 0 79.428 65.059C78.681 65.197 78.035 66.011 77.916 66.681A15 15 0 0 1 77.295 66.243C76.856 65.92 76.404 65.585 75.932 65.389 75.536 65.232 74.979 65.263 74.527 65.288 74.378 65.296 74.251 65.308 74.155 65.299 73.308 65.267 72.906 65.056 72.829 64.883 72.795 64.823 72.973 64.507 73.032 64.403 73.169 64.161 73.31 63.911 73.31 63.635 73.31 63.021 72.954 62.622 72.521 62.248 72.623 62.091 72.849 61.853 73.07 61.726A0.474 0.474 0 0 0 73.247 61.077 0.474 0.474 0 0 0 72.598 60.9 2.8 2.8 0 0 0 71.798 61.633 4.6 4.6 0 0 1 70.863 60.535C70.055 59.193 70.906 57.587 71.487 56.747 71.758 56.349 71.748 56.006 71.69 55.788 71.531 55.177 70.854 54.842 70.359 54.598L70.259 54.548C70.456 53.702 70.568 52.857 70.559 52.183 70.548 51.052 70.441 49.424 69.991 48.096A0.475 0.475 0 1 0 69.09 48.401C69.5 49.61 69.597 51.13 69.608 52.194 69.617 52.884 69.487 53.789 69.253 54.674 68.981 55.708 68.269 56.579 67.721 57.128 66.77 58.079 64.464 59.125 62.783 59.588L62.67 59.617C61.755 59.868 60.844 60.123 59.919 60.383 55.841 61.528 51.623 62.711 45.604 63.892 38.288 65.333 28.158 66.514 23.683 66.813 23.677 66.813 22.009 66.863 21.368 66.899 20.203 66.881 19.659 66.752 18.961 66.555 17.803 66.233 14.076 63.905 14.076 62.817 14.076 62.565 14.266 62.417 14.442 62.465 14.546 62.493 14.761 62.756 14.96 62.964 15.156 63.168 16.516 64.38 17.138 64.618S19.683 65.205 19.929 65.261C21.117 65.527 22.819 65.748 23.648 65.637 23.648 65.637 25.223 65.324 25.651 65.207 28.225 64.486 31.222 63.154 34.119 61.866 34.63 61.639 35.134 61.415 35.628 61.198 35.682 61.194 40.351 59.321 40.36 59.317 45.879 57.424 53.207 54.876 55.43 54.059 55.43 54.059 55.987 53.845 56.058 53.813A2.24 2.24 0 0 0 56.986 53.055C57.376 52.51 57.539 51.802 57.421 51.161A1.92 1.92 0 0 0 56.607 49.889 0.477 0.477 0 0 0 56.079 50.681C56.349 50.861 56.449 51.134 56.485 51.332A1.6 1.6 0 0 1 56.211 52.504C56.073 52.7 55.648 52.953 55.638 52.957L55.256 53.105C48.71 50.504 34.69 46.74 28.109 45.382 28.119 45.282 28.12 45.181 28.1 45.077 27.94 44.24 26.838 43.521 25.113 42.631 19.533 39.734 17.964 36.808 17.551 35.707 26.586 32.671 53.644 29.077 67.14 43.234L67.378 43.424C69.518 45.134 70.404 45.841 71.658 46.025 71.971 46.072 72.596 46.167 73.411 46.3 73.419 46.301 73.427 46.298 73.436 46.299 72.528 54.886 83.733 52.984 82.48 57.591 81.365 61.715 79.222 65.598 83.728 67.361 81.546 67.53 79.873 67.298 79.011 67.179" fill="#ffffff" data-fill-palette-color="accent"></path></g></svg></g><g transform="matrix(1,0,0,1,398.1068852555953,13.643799999999997)"><svg width="115.05" viewBox="1.0499999999999998 -37.6 115.04 37.95" height="37.95" data-palette-color="#414c84"><path d="M9.5 0.25L9.5 0.25Q7.2 0.25 5.23-0.25 3.25-0.75 1.65-1.85L1.65-1.85Q1.05-2.25 1.05-3.1L1.05-3.1Q1.05-3.5 1.23-4.13 1.4-4.75 1.7-5.28 2-5.8 2.35-5.8L2.35-5.8Q2.75-5.8 3.7-5.28 4.65-4.75 6.13-4.2 7.6-3.65 9.65-3.65L9.65-3.65Q12.2-3.65 13.85-5.15 15.5-6.65 15.5-9.35L15.5-9.35Q15.5-11.25 14.63-12.45 13.75-13.65 12.38-14.5 11-15.35 9.4-16.1L9.4-16.1Q7.6-17 5.88-18.1 4.15-19.2 3-21 1.85-22.8 1.85-25.75L1.85-25.75Q1.85-28.85 3.2-31.03 4.55-33.2 6.88-34.38 9.2-35.55 12.2-35.55L12.2-35.55Q15.5-35.55 18.1-34.1L18.1-34.1Q18.5-33.9 18.57-33.73 18.65-33.55 18.65-33.15L18.65-33.15Q18.65-32.9 18.53-32.23 18.4-31.55 18.2-31 18-30.45 17.65-30.45L17.65-30.45Q17.1-30.45 15.73-31.05 14.35-31.65 11.95-31.65L11.95-31.65Q9.7-31.65 7.95-30.35 6.2-29.05 6.2-26.25L6.2-26.25Q6.2-24.4 7.05-23.23 7.9-22.05 9.3-21.23 10.7-20.4 12.25-19.6L12.25-19.6Q14.1-18.7 15.85-17.55 17.6-16.4 18.75-14.58 19.9-12.75 19.9-9.7L19.9-9.7Q19.9-6.5 18.55-4.28 17.2-2.05 14.85-0.9 12.5 0.25 9.5 0.25ZM30.6 0.3L30.6 0.3Q29.55 0.3 28.25-0.15 26.95-0.6 26.02-1.93 25.1-3.25 25.1-5.8L25.1-5.8 25.1-22.55 23.1-22.55Q22.1-22.55 22.1-24.05L22.1-24.05 22.1-24.65Q22.1-26.15 23.1-26.15L23.1-26.15 25.1-26.15 25.7-31.4Q25.85-32.5 27.25-32.5L27.25-32.5 27.65-32.5Q28.65-32.5 29.02-32.23 29.4-31.95 29.4-31.4L29.4-31.4 29.4-26.15 32.75-26.15Q33.75-26.15 33.75-24.65L33.75-24.65 33.75-24.05Q33.75-22.55 32.75-22.55L32.75-22.55 29.4-22.55 29.4-6.3Q29.4-4.55 29.77-3.93 30.15-3.3 31.25-3.3L31.25-3.3Q32.15-3.3 32.57-3.43 33-3.55 33.25-3.55L33.25-3.55Q33.6-3.55 33.77-3.05 33.95-2.55 34-1.98 34.05-1.4 34.05-1.15L34.05-1.15Q34.05-0.65 33.45-0.33 32.85 0 32.05 0.15 31.25 0.3 30.6 0.3ZM45.5 0.35L45.5 0.35Q42.4 0.35 40.62-1.45 38.85-3.25 38.85-6.4L38.85-6.4 38.85-25.1Q38.85-26.2 40.75-26.2L40.75-26.2 41.25-26.2Q43.15-26.2 43.15-25.1L43.15-25.1 43.15-7.05Q43.15-5.2 43.92-4.25 44.7-3.3 46.5-3.3L46.5-3.3Q48.25-3.3 49.55-4.28 50.85-5.25 51.65-6.8L51.65-6.8 51.65-25.1Q51.65-26.2 53.55-26.2L53.55-26.2 54.05-26.2Q55.95-26.2 55.95-25.1L55.95-25.1 55.95-7.45Q55.95-4.4 56.2-2.98 56.45-1.55 56.45-1.2L56.45-1.2Q56.45-0.6 55.4-0.3 54.34 0 53.55 0L53.55 0Q52.9 0 52.62-0.75 52.34-1.5 51.95-3.4L51.95-3.4Q50.8-1.65 49.1-0.65 47.4 0.35 45.5 0.35ZM69.64 0.3L69.64 0.3Q67.24 0.3 65.47-1.38 63.69-3.05 62.72-6.03 61.74-9 61.74-12.9L61.74-12.9Q61.74-19.4 64.04-22.93 66.34-26.45 70.04-26.45L70.04-26.45Q71.94-26.45 73.17-25.73 74.39-25 75.34-23.9L75.34-23.9 75.34-36.5Q75.34-37.6 77.19-37.6L77.19-37.6 77.74-37.6Q79.64-37.6 79.64-36.5L79.64-36.5 79.64-7.45Q79.64-4.4 79.89-2.98 80.14-1.55 80.14-1.2L80.14-1.2Q80.14-0.6 79.09-0.3 78.04 0 77.24 0L77.24 0Q76.59 0 76.32-0.75 76.04-1.5 75.64-3.4L75.64-3.4Q74.49-1.65 72.92-0.68 71.34 0.3 69.64 0.3ZM70.69-3.35L70.69-3.35Q71.94-3.35 73.19-4.25 74.44-5.15 75.34-6.8L75.34-6.8 75.34-20.5Q73.64-22.75 71.14-22.75L71.14-22.75Q68.59-22.75 67.37-20.2 66.14-17.65 66.14-12.85L66.14-12.85Q66.14-8.35 67.27-5.85 68.39-3.35 70.69-3.35ZM89.19 0.1L88.79 0.1Q87.69 0.1 87.27-0.2 86.84-0.5 86.84-1L86.84-1 86.84-25.15Q86.84-25.7 87.27-25.98 87.69-26.25 88.79-26.25L88.79-26.25 89.19-26.25Q90.29-26.25 90.72-25.98 91.14-25.7 91.14-25.15L91.14-25.15 91.14-1Q91.14-0.5 90.72-0.2 90.29 0.1 89.19 0.1L89.19 0.1ZM88.99-29.75L88.99-29.75Q87.79-29.75 87.29-30.05 86.79-30.35 86.79-30.85L86.79-30.85 86.79-33.85Q86.79-34.35 87.29-34.65 87.79-34.95 88.99-34.95L88.99-34.95Q90.19-34.95 90.69-34.68 91.19-34.4 91.19-33.85L91.19-33.85 91.19-30.85Q91.19-30.35 90.69-30.05 90.19-29.75 88.99-29.75ZM106.59 0.3L106.59 0.3Q101.89 0.3 99.41-3.1 96.94-6.5 96.94-12.95L96.94-12.95Q96.94-19.45 99.41-22.95 101.89-26.45 106.59-26.45L106.59-26.45Q111.24-26.45 113.66-22.98 116.09-19.5 116.09-12.95L116.09-12.95Q116.09-6.45 113.69-3.08 111.29 0.3 106.59 0.3ZM106.49-3.3L106.49-3.3Q109.14-3.3 110.41-5.68 111.69-8.05 111.69-13.05L111.69-13.05Q111.69-18.05 110.41-20.45 109.14-22.85 106.49-22.85L106.49-22.85Q103.79-22.85 102.56-20.48 101.34-18.1 101.34-13.05L101.34-13.05Q101.34-8.05 102.56-5.68 103.79-3.3 106.49-3.3Z" opacity="1" transform="matrix(1,0,0,1,0,0)" fill="#414c84" class="undefined-tk-1"></path></svg></g></svg></g></svg></g></svg></g></svg></g></svg></g><defs></defs></svg><rect width="395.52" height="60.109600861413504" fill="none" stroke="none" visibility="hidden"></rect></g></svg></g></svg>